# xmcd
#
# Track frame offsets:
#	150
#	16403
#	32173
#	45355
#	61092
#	75484
#	92046
#	110226
#	125861
#	142114
#	157884
#	171066
#	186803
#	201195
#	217757
#	235937
#
# Disc length: 3352 seconds
#
# Revision: 1
# Processed by: cddbd v1.5.2PL0 Copyright (c) Steve Scherf et al.
# Submitted via: audiograbber 1.83.01
#
DISCID=d50d1610
DTITLE=Simpson, Ashlee - SDK9007
DYEAR=1900
DGENRE=Karaoke
TTITLE0=Autobiography (w vocals)
TTITLE1=Better Off (w vocals)
TTITLE2=Giving It All Away (w vocals)
TTITLE3=Love Me for Me (w vocals)
TTITLE4=Nothing New (w vocals)
TTITLE5=Pieces of Me (w vocals)
TTITLE6=Shadow (w vocals)
TTITLE7=Surrender (w vocals)
TTITLE8=Autobiography
TTITLE9=Better Off
TTITLE10=Giving It All Away
TTITLE11=Love Me for Me
TTITLE12=Nothing New
TTITLE13=Pieces of Me
TTITLE14=Shadow
TTITLE15=Surrender
EXTD=
EXTT0=
EXTT1=
EXTT2=
EXTT3=
EXTT4=
EXTT5=
EXTT6=
EXTT7=
EXTT8=
EXTT9=
EXTT10=
EXTT11=
EXTT12=
EXTT13=
EXTT14=
EXTT15=
PLAYORDER=
